<svg width="521" height="130" viewBox="0 488 521 130" fill="none" xmlns="http://www.w3.org/2000/svg">
<path d="M93.8733 493.029V616.558H69.1227V567.054H24.7507V616.558H0V493.029H24.7507V542.455H69.1227V493.029H93.8733Z" fill="white"/>
<path d="M179.937 578.167L164.916 545.14L149.82 578.167H179.937ZM189.592 599.316H140.165L132.272 616.557H105.446L164.457 489.963H165.224L224.305 616.557H197.409L189.592 599.316Z" fill="white"/>
<path d="M311.059 554.872C311.059 531.731 296.19 517.625 271.744 517.625H260.634V591.807H271.975C296.268 591.807 311.059 577.861 311.059 554.872ZM336.115 554.947C336.115 593.263 311.748 616.557 271.823 616.557H235.88V493.105L271.823 493.027C311.748 492.952 336.115 516.404 336.115 554.947Z" fill="white"/>
<path d="M396.649 493.027H421.478V616.557H396.649V493.027Z" fill="white"/>
<path d="M520.325 517.626H489.979V616.558H465.073V517.626H434.649V493.029H520.325V517.626Z" fill="white"/>
</svg>
