<svg width="521" height="732" viewBox="0 0 521 732" fill="none" xmlns="http://www.w3.org/2000/svg">
<path d="M151.639 145.969C150.098 131.377 150.204 118.597 151.511 104.154C190.574 104.154 229.102 104.101 267.631 104.172C288.194 104.212 308.735 103.785 329.11 108.065C389.228 120.693 438.076 179.724 438.35 241.097C438.57 291.273 438.396 341.453 438.396 392.24C424.983 395.369 412.25 393.202 398.055 393.738V347.462C398.055 317.33 398.162 287.198 398.031 257.066C397.722 187.94 356.304 146.302 287.452 146.001C247.779 145.826 208.106 145.969 168.432 145.969H151.639Z" fill="#11B2B9"/>
<path d="M77.0704 6.10352e-05H114.629C117.478 7.39606 115.898 14.9294 115.933 22.2507C116.136 63.4214 115.632 104.604 116.172 145.769C116.889 200.453 156.962 244.051 211.672 246.847C256.246 249.123 301.009 247.752 345.688 247.991C351.114 248.019 356.542 247.993 362.666 247.993V290.113C301.034 285.219 239.129 297.42 178.276 282.875C125.492 270.261 73.5531 212.132 75.8557 148.011C77.5637 100.371 76.1824 52.62 76.2184 4.92004C76.2211 3.45203 76.7144 1.98538 77.0704 6.10352e-05Z" fill="white"/>
<path d="M437.822 3.34799V159.532C426.263 142.703 414.907 129.763 401.775 118.533C398.731 115.931 398.366 112.719 398.369 109.139C398.394 74.1653 398.383 39.192 398.383 3.34799H437.822Z" fill="white"/>
<path d="M89.0273 377.205C87.486 375.639 86.0513 373.997 84.726 372.285C87.7273 372.321 90.8246 372.272 94.0033 372.14C93.822 375.329 93.73 378.437 93.7273 381.447C92.0886 380.136 90.522 378.723 89.0273 377.205Z" fill="#11B2B9"/>
<path d="M73.5901 339.174C73.6155 335.632 73.9848 332.148 74.6741 328.755C80.7048 325.903 87.3795 323.239 94.5221 320.831C96.2275 324.791 97.9861 328.808 99.7755 332.858C99.7688 332.894 99.7581 332.93 99.7515 332.964C96.7848 345.912 94.8848 358.624 94.1141 370.315C90.4088 370.471 86.8181 370.518 83.3648 370.443C76.9355 361.356 73.5088 350.523 73.5901 339.174Z" fill="#11B2B9"/>
<path d="M127.599 285.928C139.111 286.009 150.044 289.693 159.116 296.435C159.123 299.681 159.031 303.049 158.832 306.512C147.131 307.112 134.394 308.835 121.407 311.613C121.095 311.68 120.783 311.752 120.47 311.819C116.672 310.075 112.9 308.359 109.178 306.697C111.69 299.54 114.446 292.859 117.387 286.823C120.719 286.208 124.135 285.903 127.599 285.928Z" fill="#11B2B9"/>
<path d="M148.903 341.245C148.948 341.533 148.779 341.838 148.391 342.062C147.848 342.374 147.265 342.615 146.708 342.899C143.205 344.69 141.127 345.99 137.803 349.39C137.508 349.691 137.199 349.983 136.885 350.267C133.995 352.91 132.105 355.645 130.287 359.09C129.992 359.645 129.743 360.223 129.423 360.759C129.192 361.147 128.887 361.31 128.599 361.261C125.804 354.234 111.319 326.749 109.767 322.618C109.635 322.273 109.521 321.914 109.361 321.446C109.831 321.609 110.185 321.73 110.529 321.865C114.64 323.478 141.916 338.35 148.903 341.245Z" fill="#11B2B9"/>
<path d="M115.146 368.329C108.531 369.267 102.093 369.903 95.9435 370.227C96.6688 359.381 98.3768 347.643 101.013 335.655C101.549 336.861 102.082 338.065 102.618 339.273C107.261 349.997 111.885 360.675 115.146 368.329Z" fill="#11B2B9"/>
<path d="M127.288 314.956C125.938 314.331 124.588 313.709 123.238 313.091C135.553 310.523 147.609 308.924 158.72 308.339C158.297 314.644 157.541 321.251 156.468 328.031C148.841 324.653 138.086 319.815 127.288 314.956Z" fill="#11B2B9"/>
<path d="M95.8301 372.054C102.245 371.723 108.973 371.055 115.885 370.062C117.633 374.185 118.901 377.226 119.422 378.615C120.929 382.629 122.435 386.642 123.945 390.657C124.254 391.481 124.562 392.305 124.871 393.129C114.179 392.67 104.057 389.097 95.5488 382.849C95.5248 379.378 95.6168 375.773 95.8301 372.054Z" fill="#11B2B9"/>
<path d="M137.403 381.007C137.307 380.14 137.26 379.263 137.279 378.379C137.371 373.683 138.792 369.384 141.444 365.534C141.555 365.375 141.711 365.175 141.9 364.948C142.052 364.91 142.201 364.87 142.355 364.831L146.467 369.004C144.28 375.519 141.885 381.675 139.335 387.344C138.284 384.236 137.264 381.067 137.403 381.007Z" fill="#11B2B9"/>
<path d="M152.502 355.278C152.587 354.958 152.672 354.638 152.758 354.315C152.843 354.255 152.92 354.198 152.988 354.153C156.878 351.551 161.198 350.191 165.892 350.166C166.78 350.163 167.655 350.223 168.522 350.33C168.582 350.195 171.555 351.197 174.556 352.255C168.866 354.691 162.703 356.962 156.196 359.026L152.502 355.278Z" fill="#11B2B9"/>
<path d="M180.819 337.973C179.999 337.653 179.178 337.33 178.358 337.01C174.369 335.444 170.377 333.881 166.387 332.314C165.038 331.789 162.129 330.532 158.189 328.79C159.326 321.716 160.114 314.821 160.547 308.249C164.029 308.101 167.41 308.054 170.671 308.11C176.975 316.789 180.507 327.108 180.819 337.973Z" fill="#11B2B9"/>
<path d="M165.407 301.905C166.782 303.301 168.071 304.761 169.271 306.274C166.479 306.253 163.606 306.302 160.658 306.426C160.825 303.493 160.914 300.63 160.931 297.845C162.487 299.106 163.983 300.459 165.407 301.905Z" fill="#11B2B9"/>
<path d="M115.144 287.286C112.42 293.008 109.859 299.278 107.511 305.952C103.76 304.282 100.066 302.67 96.4602 301.15C94.7656 300.403 93.2496 299.739 91.9349 299.167C98.6482 293.288 106.591 289.247 115.144 287.286Z" fill="#11B2B9"/>
<path d="M89.2546 308.254C90.6933 311.81 92.22 315.454 93.8013 319.151C87.148 321.403 80.8933 323.872 75.1813 326.508C77.284 318.071 81.4146 310.271 87.336 303.703C87.8866 305.024 88.5333 306.552 89.2546 308.254Z" fill="#11B2B9"/>
<path d="M140.754 391.467C140.587 390.987 140.395 390.436 140.188 389.851C142.952 383.894 145.542 377.379 147.896 370.454L159.59 382.316C153.942 386.611 147.556 389.706 140.754 391.467Z" fill="#11B2B9"/>
<path d="M178.932 353.829C177.075 360.606 173.892 366.946 169.516 372.534L157.627 360.478C164.549 358.251 171.079 355.793 177.064 353.147C177.749 353.395 178.385 353.626 178.932 353.829Z" fill="#11B2B9"/>
<path d="M93.8733 493.029V616.558H69.1227V567.054H24.7507V616.558H0V493.029H24.7507V542.455H69.1227V493.029H93.8733Z" fill="white"/>
<path d="M179.937 578.167L164.916 545.14L149.82 578.167H179.937ZM189.592 599.316H140.165L132.272 616.557H105.446L164.457 489.963H165.224L224.305 616.557H197.409L189.592 599.316Z" fill="white"/>
<path d="M311.059 554.872C311.059 531.731 296.19 517.625 271.744 517.625H260.634V591.807H271.975C296.268 591.807 311.059 577.861 311.059 554.872ZM336.115 554.947C336.115 593.263 311.748 616.557 271.823 616.557H235.88V493.105L271.823 493.027C311.748 492.952 336.115 516.404 336.115 554.947Z" fill="white"/>
<path d="M396.649 493.027H421.478V616.557H396.649V493.027Z" fill="white"/>
<path d="M520.325 517.626H489.979V616.558H465.073V517.626H434.649V493.029H520.325V517.626Z" fill="white"/>
<path d="M13.2761 721.267L21.8361 715.249C24.1841 719.019 27.5868 720.737 32.1841 720.737C37.2068 720.737 40.5801 718.688 40.5801 715.847C40.5801 711.947 34.1975 708.873 28.6135 706.096C22.6281 703.119 16.0535 699.848 16.0535 691.351C16.0535 682.133 23.8535 676.049 33.6401 676.049C40.9108 676.049 46.9241 679.057 49.3361 685.504L41.4401 691.024C39.8521 687.852 36.7761 686.56 33.8028 686.56C29.8041 686.56 26.8308 688.876 26.8308 691.617C26.8308 694.789 30.8628 695.884 36.9748 698.757C45.8028 702.924 51.3535 707.421 51.3535 715.616C51.3535 725.331 43.4228 731.515 32.0161 731.515C23.2921 731.515 16.8455 727.877 13.2761 721.267Z" fill="#11B2B9"/>
<path d="M88.8177 687.72V698.13H107.196V708.805H88.8177V719.813H110.236V730.454H78.1084V677.173H110.236V687.72H88.8177Z" fill="#11B2B9"/>
<path d="M149.087 701.171L155.96 701.207C159.598 701.239 162.836 698.297 162.836 694.493C162.836 690.692 159.566 687.783 155.96 687.783H149.087V701.171ZM166.076 730.453L149.123 705.269V730.453H138.414L138.378 677.173H155.764C165.714 677.173 173.876 684.841 173.876 694.429C173.876 701.267 169.746 707.252 164.027 709.269L179.166 730.453H166.076Z" fill="#11B2B9"/>
<path d="M246.773 677.174L221.851 731.777H221.454L196.631 677.174H207.97L221.621 708.113L235.306 677.174H246.773Z" fill="#11B2B9"/>
<path d="M272.365 677.173H283.074V730.454H272.365V677.173Z" fill="#11B2B9"/>
<path d="M310.304 703.849C310.304 688.809 322.96 676.087 337.966 676.087C344.908 676.183 351.056 678.924 356.644 684.313L350.46 692.743C346.826 689.172 342.464 686.988 337.872 686.988C329.308 686.988 321.144 694.596 321.144 703.913C321.144 713.401 329.605 720.74 337.836 720.74C342.726 720.74 346.957 718.128 350.494 714.655L356.644 723.315C351.952 727.975 346.229 731.481 338.166 731.481C322.796 731.481 310.304 718.821 310.304 703.849Z" fill="#11B2B9"/>
<path d="M393.638 687.72V698.13H412.016V708.805H393.638V719.813H415.056V730.454H382.928V677.173H415.056V687.72H393.638Z" fill="#11B2B9"/>
<path d="M440.425 721.267L448.985 715.249C451.333 719.019 454.739 720.737 459.333 720.737C464.355 720.737 467.726 718.688 467.726 715.847C467.726 711.947 461.35 708.873 455.762 706.096C449.777 703.119 443.202 699.848 443.202 691.351C443.202 682.133 451.002 676.049 460.785 676.049C468.057 676.049 474.073 679.057 476.485 685.504L468.585 691.024C466.998 687.852 463.925 686.56 460.951 686.56C456.953 686.56 453.975 688.876 453.975 691.617C453.975 694.789 458.007 695.884 464.123 698.757C472.947 702.924 478.502 707.421 478.502 715.616C478.502 725.331 470.567 731.515 459.165 731.515C450.438 731.515 443.994 727.877 440.425 721.267Z" fill="#11B2B9"/>
</svg>
